<svg width="384" height="774" fill="none"
  xmlns="http://www.w3.org/2000/svg">
  <g opacity=".1" stroke="#D96DE4" strokeWidth="2" stroke-miterlimit="10">
    <path d="M476.068 540.532c23.614-20.145 26.713-55.329 6.924-78.586-19.789-23.257-54.974-25.779-78.587-5.633-23.613 20.145-26.713 55.33-6.924 78.586 19.79 23.257 54.974 25.779 78.587 5.633Z"/>
    <path d="M475.703 540.208c49.1-41.89 55.546-115.051 14.396-163.41-41.149-48.36-114.311-53.604-163.412-11.714s-55.546 115.051-14.397 163.411c41.15 48.359 114.312 53.603 163.413 11.713Z"/>
    <path d="M535.235 421.652c8.32-95.938-61.543-179.278-156.043-186.147-94.501-6.868-177.853 65.337-186.174 161.275-8.32 95.938 61.543 179.278 156.043 186.147 94.501 6.868 177.853-65.337 186.174-161.275Z"/>
    <path d="M474.867 538.903c97.803-83.44 110.642-229.169 28.676-325.495-81.965-96.326-227.695-106.772-325.498-23.332S67.403 419.245 149.368 515.571s227.696 106.772 325.499 23.332Z"/>
  </g>
</svg>