<svg width="462" height="809" fill="none"
  xmlns="http://www.w3.org/2000/svg">
  <g opacity=".1" stroke="#D96DE4" stroke-width="2" stroke-miterlimit="10">
    <path d="M-132.364 520.919c17.514 29.863 56.517 39.24 87.115 20.945 30.599-18.296 41.206-57.336 23.692-87.2-17.514-29.863-56.516-39.24-87.115-20.945-30.599 18.296-41.206 57.337-23.692 87.2Z"/>
    <path d="M-133.196 521.576c36.417 62.097 117.519 81.596 181.145 43.552 63.626-38.043 85.682-119.223 49.264-181.32-36.417-62.097-117.52-81.596-181.145-43.552-63.626 38.043-85.682 119.223-49.264 181.32Z"/>
    <path d="M-13.036 612.865c104.18 25.675 211.465-40.145 239.63-147.015 28.165-106.869-33.457-214.318-137.637-239.993-104.18-25.675-211.465 40.146-239.63 147.015-28.164 106.87 33.458 214.318 137.637 239.993Z"/>
    <path d="M-133.99 522.811c72.54 123.689 234.085 162.529 360.821 86.75C353.566 533.783 397.5 372.082 324.96 248.393c-72.54-123.69-234.085-162.53-360.82-86.751-126.736 75.778-170.67 237.479-98.13 361.169Z"/>
  </g>
</svg>